# xmcd CD database file
#
# Track frame offsets:
#	150
#	13942
#	23847
#	38255
#	51052
#	62065
#	75362
#	87570
#	100127
#	110757
#	123242
#	135440
#	147727
#	158397
#	170902
#	183435
#	195197
#	207037
#	219005
#	230272
#
# Disc length: 3231 seconds
#
# Revision: 0
# Processed by: cddbd v1.5.1PL2 Copyright (c) Steve Scherf et al.
# Submitted via: CDex 1.51
#
DISCID=fe0c9d14
DTITLE=Lightnin' Hopkins - Blues That Mean Old Twister
DYEAR=1900
DGENRE=Blues
TTITLE0=Katie Mae
TTITLE1=Feel So Bad
TTITLE2=Blues (That Means Old Twister)
TTITLE3=I Can't Stay Here In Your Town
TTITLE4=Short Haired Woman
TTITLE5=Thinkin' And Worryin'
TTITLE6=Can't Get That Woman Off My Mind
TTITLE7=Woman Woman
TTITLE8=You're Gonna Miss Me
TTITLE9=Sugar On MY Mind
TTITLE10=Someday Baby
TTITLE11=Come Back Baby
TTITLE12=Lightnin's Boogie
TTITLE13=Howling Wolf 
TTITLE14=Mama's Baby Child
TTITLE15=My California
TTITLE16=Honey Baby
TTITLE17=See See Rider
TTITLE18=Abilene
TTITLE19=Miss Loretta
EXTD=
EXTT0=
EXTT1=
EXTT2=
EXTT3=
EXTT4=
EXTT5=
EXTT6=
EXTT7=
EXTT8=
EXTT9=
EXTT10=
EXTT11=
EXTT12=
EXTT13=
EXTT14=
EXTT15=
EXTT16=
EXTT17=
EXTT18=
EXTT19=
PLAYORDER=
